#!OML:ASF H:\MichaelJackson\Top Level 1\Subject 1\Session 1\male.ASF
:FULLY-SPECIFIED
:DEGREES
1167
root -9.9499 16.6137 13.6573 -162.753 -215.316 -175.349
lowerback 0.273143 4.6392 -6.99994
upperback 1.59161 6.22603 -0.345721
thorax 0.790882 3.04433 3.52556
lowerneck -8.34435 -11.5037 -6.10783
upperneck 17.4989 -16.3225 8.56036
head 7.99836 -7.42502 2.12254
rclavicle 5.42682e-014 -1.19271e-015
rhumerus -23.4274 2.50036 -83.5125
rradius 87.0274
rwrist -21.9528
rhand -27.872 -19.6906
rfingers 7.12502
rthumb -1.26225 -49.6667
lclavicle 5.42682e-014 -1.19271e-015
lhumerus -74.2894 -2.70649 96.3275
lradius 83.689
lwrist 35.4683
lhand -21.99 4.13627
lfingers 7.12502
lthumb 4.41838 34.0702
rfemur -53.101 2.05116 18.5026
rtibia 53.0388
rfoot 0.319582 0.119044
rtoes 26.1093
lfemur -16.7751 5.04483 -29.8774
ltibia 35.3011
lfoot -32.4853 -0.185838
ltoes 19.4101
1168
root -9.94121 16.5985 13.6856 -162.487 -215.705 -175.184
lowerback 0.307471 4.6098 -6.94565
upperback 1.65665 6.18639 -0.314372
thorax 0.845478 3.02157 3.52945
lowerneck -8.28058 -11.5943 -6.19098
upperneck 17.1749 -16.4354 8.70041
head 7.90857 -7.4858 2.17379
rclavicle -6.52014e-014 1.11319e-014
rhumerus -23.2283 2.10437 -83.3519
rradius 86.9191
rwrist -22.1834
rhand -27.9504 -20.1424
rfingers 7.12502
rthumb -1.338 -50.118
lclavicle -6.52014e-014 1.11319e-014
lhumerus -74.1807 -3.06134 96.4407
lradius 83.751
lwrist 35.2571
lhand -21.742 4.57434
lfingers 7.12502
lthumb 4.6579 34.5031
rfemur -52.9916 1.97004 18.0823
rtibia 53.0314
rfoot -0.490543 0.668249
rtoes 26.9542
lfemur -16.8684 5.12351 -29.8916
ltibia 35.4057
lfoot -32.7459 -0.532071
ltoes 19.2706
1169
root -9.93119 16.5803 13.7154 -162.232 -216.081 -174.989
lowerback 0.386177 4.55704 -6.94669
upperback 1.67168 6.11004 -0.287287
thorax 0.822417 2.98381 3.55325
lowerneck -8.09893 -11.632 -6.3658
upperneck 16.9313 -16.4888 8.9283
head 7.83611 -7.51724 2.279
rclavicle -3.00165e-014 3.65764e-014
rhumerus -23.1416 1.88287 -83.2443
rradius 86.8652
rwrist -23.0513
rhand -28.5516 -20.2783
rfingers 7.12502
rthumb -1.91861 -50.2494
lclavicle -3.00165e-014 3.65764e-014
lhumerus -74.1817 -3.40639 96.5027
lradius 83.8826
lwrist 34.9429
lhand -21.4227 5.18385
lfingers 7.12502
lthumb 4.96625 35.1056
rfemur -52.8928 1.5388 17.9189
rtibia 53.0429
rfoot -1.17395 1.38658
rtoes 26.2466
lfemur -16.92 5.19283 -29.9257
ltibia 35.4717
lfoot -32.9641 -0.840702
ltoes 19.0584
1170
root -9.92071 16.5704 13.7465 -162.009 -216.46 -174.841
lowerback 0.422659 4.46433 -6.99844
upperback 1.71122 5.98451 -0.18856
thorax 0.841385 2.91857 3.68453
lowerneck -8.05357 -11.6823 -6.19617
upperneck 16.7294 -16.5312 8.7553
head 7.73447 -7.55107 2.20173
rclavicle -7.4743e-014 1.59028e-014
rhumerus -23.0176 1.77549 -83.0626
rradius 86.8493
rwrist -24.2184
rhand -28.7658 -20.1174
rfingers 7.12502
rthumb -2.12555 -50.0866
lclavicle -7.4743e-014 1.59028e-014
lhumerus -73.9992 -3.53935 96.5319
lradius 83.7941
lwrist 34.3974
lhand -20.8326 5.68083
lfingers 7.12502
lthumb 5.53602 35.5885
rfemur -52.8095 1.03686 17.9091
rtibia 53.0892
rfoot -1.79077 1.80945
rtoes 27.4013
lfemur -16.9334 5.1824 -29.9041
ltibia 35.4904
lfoot -33.1497 -1.13167
ltoes 18.8549
1171
root -9.91011 16.563 13.7771 -161.782 -216.771 -174.662
lowerback 0.472676 4.41594 -7.03641
upperback 1.73875 5.91685 -0.144378
thorax 0.841344 2.88356 3.74932
lowerneck -8.01277 -11.6964 -6.33222
upperneck 16.6319 -16.5476 8.88565
head 7.72015 -7.56059 2.2641
rclavicle -8.11041e-014 -2.38542e-015
rhumerus -22.9798 1.60024 -82.9498
rradius 86.7889
rwrist -24.8056
rhand -28.8132 -20.2134
rfingers 7.12502
rthumb -2.17133 -50.1821
lclavicle -8.11041e-014 -2.38542e-015
lhumerus -73.8704 -3.7483 96.5607
lradius 83.7337
lwrist 33.6923
lhand -20.21 6.07273
lfingers 7.12502
lthumb 6.13709 35.9638
rfemur -52.7598 0.472108 18.0308
rtibia 53.1627
rfoot -2.36017 2.0215
rtoes 27.9539
lfemur -16.9067 5.0235 -29.9159
ltibia 35.4619
lfoot -33.2574 -1.26195
ltoes 18.7558
1172
root -9.89824 16.5557 13.8079 -161.553 -217.015 -174.502
lowerback 0.488995 4.36803 -7.09051
upperback 1.75407 5.852 -0.089427
thorax 0.844719 2.84987 3.83629
lowerneck -8.00117 -11.686 -6.37426
upperneck 16.5813 -16.5256 8.90507
head 7.70507 -7.55295 2.28056
rclavicle -1.91628e-013 3.89618e-014
rhumerus -22.9491 1.4396 -82.808
rradius 86.7082
rwrist -25.0817
rhand -28.7952 -20.2496
rfingers 7.12502
rthumb -2.15394 -50.2185
lclavicle -1.91628e-013 3.89618e-014
lhumerus -73.674 -3.9101 96.5381
lradius 83.5571
lwrist 33.0633
lhand -19.5414 6.28508
lfingers 7.12502
lthumb 6.78257 36.1564
rfemur -52.7765 -0.173448 18.2886
rtibia 53.2825
rfoot -2.85692 2.1441
rtoes 29.2925
lfemur -16.8738 4.88097 -29.9345
ltibia 35.3549
lfoot -33.2855 -1.34721
ltoes 18.6257
